<svg width="44" height="57" viewBox="0 0 44 57" fill="none" xmlns="http://www.w3.org/2000/svg">
<mask id="path-1-inside-1_163_21" fill="white">
<path d="M29.668 0.833983C29.0323 0.811132 28.3875 0.881054 27.75 1.0498C26.05 1.4998 24.6498 2.59961 23.7998 4.09961L22 7.34961C21.6 8.04961 21.8498 9.00039 22.5498 9.40039L31.2002 14.4004C31.4502 14.5504 31.7002 14.5996 31.9502 14.5996C32.1002 14.5996 32.1997 14.5998 32.3497 14.5498C32.7497 14.4498 33.05 14.1996 33.25 13.8496L35.0997 10.5996C35.9497 9.09961 36.2 7.35039 35.75 5.65039C35.3 3.95039 34.2002 2.55019 32.7002 1.70019C31.7627 1.16894 30.7276 0.872069 29.668 0.833983ZM20.0489 12.0635C19.5645 12.1006 19.0997 12.3623 18.8497 12.7998L3.75004 39C2.05004 41.9 1.10043 45.1502 0.900433 48.4502L0.500042 54.9004C0.450042 55.4504 0.750042 55.9998 1.25004 56.2998C1.50004 56.4498 1.75004 56.5 2.00004 56.5C2.30004 56.5 2.59965 56.4 2.84965 56.25L8.25004 52.7002C11 50.8502 13.35 48.4 15 45.5L30.1504 19.2998C30.5504 18.5998 30.2997 17.65 29.5997 17.25C28.8997 16.85 27.9498 17.0998 27.5498 17.7998L12.4004 44C10.9504 46.45 8.94985 48.6002 6.54985 50.2002L3.65043 52.0996L3.84965 48.6504C3.99965 45.8004 4.84985 43 6.29985 40.5L21.4502 14.2998C21.8502 13.5998 21.6004 12.65 20.9004 12.25C20.6379 12.1 20.3395 12.0412 20.0489 12.0635ZM14.5 53.5C13.65 53.5 13 54.15 13 55C13 55.85 13.65 56.5 14.5 56.5H34.5C35.35 56.5 36 55.85 36 55C36 54.15 35.35 53.5 34.5 53.5H14.5ZM42 53.5C41.6022 53.5 41.2207 53.658 40.9394 53.9393C40.6581 54.2206 40.5 54.6022 40.5 55C40.5 55.3978 40.6581 55.7794 40.9394 56.0607C41.2207 56.342 41.6022 56.5 42 56.5C42.3979 56.5 42.7794 56.342 43.0607 56.0607C43.342 55.7794 43.5 55.3978 43.5 55C43.5 54.6022 43.342 54.2206 43.0607 53.9393C42.7794 53.658 42.3979 53.5 42 53.5Z"/>
</mask>
<path d="M29.668 0.833983C29.0323 0.811132 28.3875 0.881054 27.75 1.0498C26.05 1.4998 24.6498 2.59961 23.7998 4.09961L22 7.34961C21.6 8.04961 21.8498 9.00039 22.5498 9.40039L31.2002 14.4004C31.4502 14.5504 31.7002 14.5996 31.9502 14.5996C32.1002 14.5996 32.1997 14.5998 32.3497 14.5498C32.7497 14.4498 33.05 14.1996 33.25 13.8496L35.0997 10.5996C35.9497 9.09961 36.2 7.35039 35.75 5.65039C35.3 3.95039 34.2002 2.55019 32.7002 1.70019C31.7627 1.16894 30.7276 0.872069 29.668 0.833983ZM20.0489 12.0635C19.5645 12.1006 19.0997 12.3623 18.8497 12.7998L3.75004 39C2.05004 41.9 1.10043 45.1502 0.900433 48.4502L0.500042 54.9004C0.450042 55.4504 0.750042 55.9998 1.25004 56.2998C1.50004 56.4498 1.75004 56.5 2.00004 56.5C2.30004 56.5 2.59965 56.4 2.84965 56.25L8.25004 52.7002C11 50.8502 13.35 48.4 15 45.5L30.1504 19.2998C30.5504 18.5998 30.2997 17.65 29.5997 17.25C28.8997 16.85 27.9498 17.0998 27.5498 17.7998L12.4004 44C10.9504 46.45 8.94985 48.6002 6.54985 50.2002L3.65043 52.0996L3.84965 48.6504C3.99965 45.8004 4.84985 43 6.29985 40.5L21.4502 14.2998C21.8502 13.5998 21.6004 12.65 20.9004 12.25C20.6379 12.1 20.3395 12.0412 20.0489 12.0635ZM14.5 53.5C13.65 53.5 13 54.15 13 55C13 55.85 13.65 56.5 14.5 56.5H34.5C35.35 56.5 36 55.85 36 55C36 54.15 35.35 53.5 34.5 53.5H14.5ZM42 53.5C41.6022 53.5 41.2207 53.658 40.9394 53.9393C40.6581 54.2206 40.5 54.6022 40.5 55C40.5 55.3978 40.6581 55.7794 40.9394 56.0607C41.2207 56.342 41.6022 56.5 42 56.5C42.3979 56.5 42.7794 56.342 43.0607 56.0607C43.342 55.7794 43.5 55.3978 43.5 55C43.5 54.6022 43.342 54.2206 43.0607 53.9393C42.7794 53.658 42.3979 53.5 42 53.5Z" fill="#999999"/>
<path d="M29.668 0.833983L31.1049 -39.1402L31.1049 -39.1402L29.668 0.833983ZM27.75 1.0498L37.9857 39.718L37.9857 39.718L27.75 1.0498ZM23.7998 4.09961L-11.001 -15.6209L-11.0977 -15.4503L-11.1927 -15.2788L23.7998 4.09961ZM22 7.34961L56.7298 27.1952L56.8627 26.9625L56.9926 26.728L22 7.34961ZM22.5498 9.40039L42.5669 -25.2308L42.4813 -25.2803L42.3954 -25.3293L22.5498 9.40039ZM31.2002 14.4004L51.7801 -19.8993L51.5001 -20.0673L51.2173 -20.2308L31.2002 14.4004ZM32.3497 14.5498L22.6482 -24.2559L21.1579 -23.8833L19.7005 -23.3975L32.3497 14.5498ZM33.25 13.8496L67.9798 33.6952L67.9971 33.6648L68.0144 33.6344L33.25 13.8496ZM35.0997 10.5996L69.864 30.3844L69.8823 30.3523L69.9005 30.3201L35.0997 10.5996ZM32.7002 1.70019L52.4207 -33.1007L32.7002 1.70019ZM20.0489 12.0635L16.9933 -27.8196L16.9933 -27.8196L20.0489 12.0635ZM18.8497 12.7998L53.5062 32.7729L53.5429 32.7092L53.5794 32.6454L18.8497 12.7998ZM3.75004 39L38.258 59.2288L38.3327 59.1012L38.4066 58.9731L3.75004 39ZM0.900433 48.4502L40.8236 50.9284L40.8254 50.8992L40.8272 50.87L0.900433 48.4502ZM0.500042 54.9004L40.3358 58.5218L40.3877 57.9508L40.4232 57.3786L0.500042 54.9004ZM2.84965 56.25L23.4295 90.5497L24.1342 90.1269L24.821 89.6754L2.84965 56.25ZM8.25004 52.7002L30.2214 86.1256L30.3999 86.0083L30.5771 85.8891L8.25004 52.7002ZM15 45.5L-19.6274 25.4765L-19.6974 25.5975L-19.7665 25.719L15 45.5ZM30.1504 19.2998L64.7779 39.3233L64.8292 39.2345L64.8802 39.1454L30.1504 19.2998ZM27.5498 17.7998L62.1779 37.8223L62.2289 37.734L62.2796 37.6454L27.5498 17.7998ZM12.4004 44L46.8235 64.3728L46.9269 64.1982L47.0284 64.0225L12.4004 44ZM6.54985 50.2002L28.4693 83.6597L28.6039 83.5715L28.7379 83.4822L6.54985 50.2002ZM3.65043 52.0996L-36.283 49.7931L-40.8624 129.079L25.5699 85.5591L3.65043 52.0996ZM3.84965 48.6504L43.7831 50.9569L43.789 50.8548L43.7944 50.7527L3.84965 48.6504ZM6.29985 40.5L40.9011 60.5687L40.9142 60.5461L40.9273 60.5235L6.29985 40.5ZM21.4502 14.2998L56.0777 34.3233L56.1291 34.2345L56.18 34.1454L21.4502 14.2998ZM20.9004 12.25L1.05487 46.9797L1.05487 46.9797L20.9004 12.25ZM42 53.5V93.5V53.5ZM31.1049 -39.1402C26.5556 -39.3037 21.977 -38.7997 17.5143 -37.6184L37.9857 39.718C34.7981 40.5618 31.5089 40.926 28.2312 40.8082L31.1049 -39.1402ZM17.5143 -37.6184C5.26218 -34.3752 -4.92115 -26.3501 -11.001 -15.6209L58.6007 23.8201C54.2208 31.5493 46.8379 37.3748 37.9857 39.718L17.5143 -37.6184ZM-11.1927 -15.2788L-12.9925 -12.0288L56.9926 26.728L58.7924 23.478L-11.1927 -15.2788ZM-12.7297 -12.4959C-23.8686 6.99719 -17.5617 32.5496 2.70429 44.1301L42.3954 -25.3293C61.2614 -14.5488 67.0687 9.10203 56.7298 27.1952L-12.7297 -12.4959ZM2.53275 44.0315L11.1831 49.0315L51.2173 -20.2308L42.5669 -25.2308L2.53275 44.0315ZM10.6204 48.7001C18.2929 53.3036 25.9993 54.5996 31.9502 54.5996V-25.4004C37.4012 -25.4004 44.6075 -24.2029 51.7801 -19.8993L10.6204 48.7001ZM31.9502 54.5996C32.4307 54.5996 38.209 54.7604 44.9988 52.4971L19.7005 -23.3975C22.4208 -24.3043 25.2722 -24.9199 28.1914 -25.2102C30.4708 -25.4369 32.4779 -25.4004 31.9502 -25.4004V54.5996ZM42.0511 53.3555C54.1927 50.3201 62.9952 42.4182 67.9798 33.6952L-1.47968 -5.99595C3.10489 -14.0189 11.3066 -21.4205 22.6482 -24.2559L42.0511 53.3555ZM68.0144 33.6344L69.864 30.3844L0.335266 -9.18517L-1.51434 -5.93517L68.0144 33.6344ZM69.9005 30.3201C75.754 19.9904 77.621 7.51414 74.4183 -4.58531L-2.91817 15.8861C-5.22096 7.18663 -3.85472 -1.79121 0.298764 -9.12089L69.9005 30.3201ZM74.4183 -4.58531C71.175 -16.8375 63.15 -27.0208 52.4207 -33.1007L12.9797 36.5011C5.25051 32.1212 -0.574948 24.7383 -2.91817 15.8861L74.4183 -4.58531ZM52.4207 -33.1007C46.0264 -36.7242 38.7379 -38.8658 31.1049 -39.1402L28.2311 40.8082C22.7173 40.61 17.4991 39.0621 12.9797 36.5011L52.4207 -33.1007ZM16.9933 -27.8196C4.74654 -26.8814 -8.35105 -20.2216 -15.8801 -7.04575L53.5794 32.6454C46.5503 44.9462 34.3825 51.0826 23.1044 51.9466L16.9933 -27.8196ZM-15.8069 -7.17332L-30.9065 19.0269L38.4066 58.9731L53.5062 32.7729L-15.8069 -7.17332ZM-30.7579 18.7712C-35.7687 27.3192 -38.4615 36.7106 -39.0263 46.0304L40.8272 50.87C40.6623 53.5898 39.8688 56.4808 38.258 59.2288L-30.7579 18.7712ZM-39.0227 45.972L-39.4231 52.4222L40.4232 57.3786L40.8236 50.9284L-39.0227 45.972ZM-39.3357 51.279C-40.9115 68.6134 -31.6541 83.2049 -19.3298 90.5995L21.8299 22.0001C33.1542 28.7947 41.8116 42.2874 40.3358 58.5218L-39.3357 51.279ZM-19.3298 90.5995C-11.7364 95.1556 -4.06213 96.5 2.00004 96.5V16.5C7.56221 16.5 14.7364 17.744 21.8299 22.0001L-19.3298 90.5995ZM2.00004 96.5C10.8919 96.5 18.2244 93.6728 23.4295 90.5497L-17.7302 21.9503C-13.0251 19.1272 -6.29181 16.5 2.00004 16.5V96.5ZM24.821 89.6754L30.2214 86.1256L-13.7213 19.2748L-19.1217 22.8246L24.821 89.6754ZM30.5771 85.8891C38.0787 80.8426 44.8455 73.9302 49.7666 65.281L-19.7665 25.719C-18.1454 22.8698 -16.0786 20.8578 -14.077 19.5113L30.5771 85.8891ZM49.6275 65.5235L64.7779 39.3233L-4.47701 -0.723685L-19.6274 25.4765L49.6275 65.5235ZM64.8802 39.1454C76.0481 19.6015 69.6611 -5.92781 49.4452 -17.4797L9.75409 51.9797C-9.06175 41.2278 -14.9472 17.5981 -4.57929 -0.545755L64.8802 39.1454ZM49.4452 -17.4797C29.9414 -28.6248 4.39466 -22.3012 -7.17988 -2.04576L62.2796 37.6454C51.505 56.5008 27.8579 62.3248 9.75409 51.9797L49.4452 -17.4797ZM-7.07816 -2.22272L-22.2276 23.9775L47.0284 64.0225L62.1779 37.8223L-7.07816 -2.22272ZM-22.0226 23.6272C-20.5272 21.1004 -18.4141 18.7688 -15.6382 16.9182L28.7379 83.4822C36.3138 78.4316 42.428 71.7996 46.8235 64.3728L-22.0226 23.6272ZM-15.3696 16.7407L-18.269 18.6401L25.5699 85.5591L28.4693 83.6597L-15.3696 16.7407ZM43.5839 54.4061L43.7831 50.9569L-36.0838 46.3439L-36.283 49.7931L43.5839 54.4061ZM43.7944 50.7527C43.6009 54.4283 42.5291 57.7619 40.9011 60.5687L-28.3014 20.4313C-32.8294 28.2381 -35.6016 37.1725 -36.0951 46.548L43.7944 50.7527ZM40.9273 60.5235L56.0777 34.3233L-13.1772 -5.72368L-28.3276 20.4765L40.9273 60.5235ZM56.18 34.1454C67.325 14.6416 61.0014 -10.9052 40.746 -22.4797L1.05487 46.9797C-17.8006 36.2052 -23.6245 12.5581 -13.2795 -5.54575L56.18 34.1454ZM40.746 -22.4797C33.0055 -26.9029 24.6282 -28.4046 16.9933 -27.8196L23.1044 51.9466C16.0507 52.487 8.2704 51.1029 1.05487 46.9797L40.746 -22.4797ZM14.5 13.5C-8.44135 13.5 -27 32.0586 -27 55H53C53 76.2414 35.7414 93.5 14.5 93.5V13.5ZM-27 55C-27 77.9414 -8.44135 96.5 14.5 96.5V16.5C35.7414 16.5 53 33.7586 53 55H-27ZM14.5 96.5H34.5V16.5H14.5V96.5ZM34.5 96.5C57.4414 96.5 76 77.9414 76 55H-3.99996C-3.99996 33.7586 13.2587 16.5 34.5 16.5V96.5ZM76 55C76 32.0586 57.4414 13.5 34.5 13.5V93.5C13.2587 93.5 -3.99996 76.2414 -3.99996 55H76ZM34.5 13.5H14.5V93.5H34.5V13.5ZM42 13.5C30.9937 13.5 20.4379 17.8722 12.6551 25.6551L69.2237 82.2236C62.0034 89.4438 52.2108 93.5 42 93.5L42 13.5ZM12.6551 25.6551C4.87227 33.4379 0.500042 43.9936 0.500042 55H80.5C80.5 65.2107 76.4439 75.0034 69.2237 82.2236L12.6551 25.6551ZM0.500042 55C0.500042 66.0064 4.87227 76.5621 12.6551 84.3449L69.2237 27.7764C76.4439 34.9966 80.5 44.7893 80.5 55H0.500042ZM12.6551 84.3449C20.4379 92.1278 30.9937 96.5 42 96.5V16.5C52.2108 16.5 62.0034 20.5562 69.2237 27.7764L12.6551 84.3449ZM42 96.5C53.0064 96.5 63.5621 92.1278 71.345 84.3449L14.7764 27.7764C21.9967 20.5562 31.7893 16.5 42 16.5V96.5ZM71.345 84.3449C79.1278 76.5621 83.5 66.0064 83.5 55H3.50004C3.50004 44.7893 7.5562 34.9966 14.7764 27.7764L71.345 84.3449ZM83.5 55C83.5 43.9936 79.1278 33.4379 71.345 25.6551L14.7764 82.2236C7.5562 75.0034 3.50004 65.2107 3.50004 55H83.5ZM71.345 25.6551C63.5621 17.8722 53.0064 13.5 42 13.5V93.5C31.7893 93.5 21.9967 89.4438 14.7764 82.2236L71.345 25.6551Z" fill="#999999" mask="url(#path-1-inside-1_163_21)"/>
</svg>
