<svg width="31" height="29" viewBox="0 0 31 29" fill="none" xmlns="http://www.w3.org/2000/svg">
<path d="M23.7737 20.7143C23.5317 20.7147 23.2972 20.6305 23.1109 20.4761L18.4295 16.5714H16.5237C14.3262 16.5714 12.2187 15.6985 10.6649 14.1446C9.11099 12.5907 8.23804 10.4832 8.23804 8.28571C8.23804 6.0882 9.11099 3.9807 10.6649 2.42683C12.2187 0.872956 14.3262 0 16.5237 0H22.738C24.7506 0.00574665 26.6922 0.743788 28.2004 2.07632C29.7086 3.40885 30.6803 5.24476 30.934 7.24125C31.1877 9.23775 30.706 11.2583 29.579 12.9257C28.452 14.5931 26.7566 15.7933 24.8095 16.3021V19.6786C24.8099 19.8767 24.7536 20.0707 24.6471 20.2378C24.5407 20.4048 24.3885 20.5379 24.2087 20.6211C24.0722 20.6833 23.9238 20.7151 23.7737 20.7143ZM16.5237 2.07143C14.8756 2.07143 13.295 2.72615 12.1296 3.89155C10.9642 5.05695 10.3095 6.63758 10.3095 8.28571C10.3095 9.93384 10.9642 11.5145 12.1296 12.6799C13.295 13.8453 14.8756 14.5 16.5237 14.5H18.8023C19.0443 14.4995 19.2788 14.5838 19.4652 14.7382L22.738 17.4621V15.4528C22.7356 15.2015 22.8246 14.9579 22.9884 14.7673C23.1523 14.5768 23.3799 14.4523 23.6287 14.4171C25.1593 14.1663 26.5408 13.3522 27.5017 12.1347C28.4626 10.9172 28.9335 9.38445 28.8219 7.83748C28.7103 6.2905 28.0242 4.84118 26.8985 3.77426C25.7728 2.70734 24.2888 2.09995 22.738 2.07143H16.5237Z" fill="#3369F3"/>
<path d="M20.6666 7.25H18.5952V9.32143H20.6666V7.25Z" fill="#3369F3"/>
<path d="M15.4879 7.25H13.4165V9.32143H15.4879V7.25Z" fill="#3369F3"/>
<path d="M25.8451 7.25H23.7737V9.32143H25.8451V7.25Z" fill="#3369F3"/>
<path d="M7.20229 28.9999C7.05225 29.0007 6.90382 28.9689 6.76729 28.9067C6.58751 28.8235 6.43536 28.6905 6.32889 28.5234C6.22241 28.3564 6.16608 28.1623 6.16657 27.9642V24.5878C4.51862 24.1487 3.04629 23.2119 1.95052 21.905C0.854751 20.5982 0.188929 18.9851 0.043926 17.2858C-0.101078 15.5866 0.281801 13.8839 1.14031 12.4103C1.99881 10.9368 3.29112 9.76397 4.84086 9.05206C4.96594 8.98614 5.1032 8.94653 5.24417 8.93568C5.38514 8.92482 5.52685 8.94294 5.66055 8.98892C5.79425 9.0349 5.91712 9.10777 6.0216 9.20305C6.12607 9.29832 6.20993 9.41397 6.26801 9.54288C6.32609 9.67179 6.35716 9.81122 6.35931 9.9526C6.36145 10.094 6.33463 10.2343 6.2805 10.3649C6.22636 10.4955 6.14605 10.6137 6.04452 10.7121C5.94299 10.8105 5.82239 10.887 5.69015 10.9371C4.46793 11.4912 3.45794 12.4261 2.81122 13.602C2.1645 14.7779 1.91581 16.1315 2.10233 17.4605C2.28885 18.7894 2.90056 20.0223 3.84599 20.9747C4.79141 21.9271 6.01974 22.5479 7.34729 22.7442C7.59615 22.7794 7.82372 22.9038 7.9876 23.0944C8.15148 23.2849 8.24047 23.5286 8.238 23.7799V25.7892L11.5109 23.0653C11.6913 22.8958 11.9264 22.7966 12.1737 22.7856H14.4523C15.2817 22.7872 16.1029 22.621 16.8665 22.297C17.63 21.9731 18.3202 21.4981 18.8955 20.9006C19.0878 20.7028 19.3507 20.5896 19.6266 20.5857C19.7631 20.5837 19.8987 20.6087 20.0257 20.6592C20.1526 20.7097 20.2683 20.7847 20.3662 20.8799C20.4641 20.9751 20.5424 21.0887 20.5964 21.2141C20.6504 21.3396 20.6792 21.4744 20.6812 21.611C20.6831 21.7475 20.6581 21.8832 20.6076 22.0101C20.5571 22.137 20.4821 22.2527 20.3869 22.3506C19.6152 23.1435 18.6924 23.7738 17.6732 24.2042C16.6539 24.6347 15.5587 24.8567 14.4523 24.857H12.5466L7.86514 28.7617C7.67881 28.9161 7.44428 29.0004 7.20229 28.9999Z" fill="#3369F3"/>
</svg>
