<svg width="61" height="20" viewBox="0 0 61 20" fill="none" xmlns="http://www.w3.org/2000/svg">
<path d="M31.7812 5.27273H25.0483V14H26.3608V6.39773H30.4688V14H31.7812V5.27273ZM36.4496 14.1321C38.2947 14.1321 39.5007 12.7812 39.5007 10.7571C39.5007 8.72017 38.2947 7.36932 36.4496 7.36932C34.6044 7.36932 33.3984 8.72017 33.3984 10.7571C33.3984 12.7812 34.6044 14.1321 36.4496 14.1321ZM36.4538 13.0625C35.2479 13.0625 34.6854 12.0099 34.6854 10.7528C34.6854 9.5 35.2479 8.43466 36.4538 8.43466C37.6513 8.43466 38.2138 9.5 38.2138 10.7528C38.2138 12.0099 37.6513 13.0625 36.4538 13.0625ZM42.1715 12.2145V7.45455H40.9229V14H42.3079L45.18 9.2358V14H46.4286V7.45455H45.0565L42.1715 12.2145ZM50.8988 14.1321C52.4457 14.1321 53.4471 13.2031 53.5877 11.929H52.3477C52.1857 12.6364 51.636 13.054 50.9073 13.054C49.8292 13.054 49.1346 12.1548 49.1346 10.7273C49.1346 9.32528 49.842 8.44318 50.9073 8.44318C51.717 8.44318 52.2113 8.95455 52.3477 9.56818H53.5877C53.4513 8.24716 52.3732 7.36932 50.886 7.36932C49.0408 7.36932 47.8477 8.75852 47.8477 10.7571C47.8477 12.7301 48.9982 14.1321 50.8988 14.1321ZM54.9503 14H56.2244V11.3835H57.0511L59.0241 14H60.6051L58.0398 10.6378L60.5753 7.45455H58.9986L56.8381 10.1989H56.2244V7.45455H54.9503V14Z" fill="#999999"/>
<path fill-rule="evenodd" clip-rule="evenodd" d="M11.5925 11.4138C10.1606 12.8458 7.83895 12.8458 6.40703 11.4138C4.97511 9.98191 4.97511 7.6603 6.40703 6.22838C7.83895 4.79646 10.1606 4.79646 11.5925 6.22838C13.0244 7.6603 13.0244 9.98191 11.5925 11.4138ZM12.0329 12.7968C10.0726 14.2962 7.25705 14.1495 5.46422 12.3566C3.5116 10.404 3.5116 7.23819 5.46422 5.28557C7.41684 3.33295 10.5827 3.33295 12.5353 5.28557C14.328 7.07832 14.4748 9.89374 12.9756 11.854L16.5423 15.4207L15.5995 16.3635L12.0329 12.7968Z" fill="#999999"/>
</svg>
