<svg width="15" height="17" viewBox="0 0 15 17" fill="none" xmlns="http://www.w3.org/2000/svg">
<path d="M9.39933 0C10.1167 0 10.7537 0.45905 10.9805 1.13962L11.434 2.5H14.1667C14.6269 2.5 15 2.8731 15 3.33333C15 3.79356 14.6269 4.16665 14.1667 4.16667L14.1646 4.22604L13.4417 14.3447C13.3483 15.6531 12.2598 16.6667 10.9482 16.6667H4.05187C2.74027 16.6667 1.65167 15.6531 1.55822 14.3447L0.83545 4.22604C0.834025 4.20612 0.833317 4.18632 0.8333 4.16667C0.373075 4.16665 0 3.79356 0 3.33333C0 2.8731 0.3731 2.5 0.833333 2.5H3.56603L4.01949 1.13962C4.24635 0.45905 4.88325 0 5.60063 0H9.39933ZM12.4979 4.16667H2.50213L3.22065 14.226C3.2518 14.6622 3.61467 15 4.05187 15H10.9482C11.3853 15 11.7482 14.6622 11.7793 14.226L12.4979 4.16667ZM5.83333 6.66667C6.26071 6.66667 6.61292 6.98836 6.66106 7.40281L6.66667 7.5V11.6667C6.66667 12.1269 6.29358 12.5 5.83333 12.5C5.40597 12.5 5.05374 12.1783 5.00561 11.7639L5 11.6667V7.5C5 7.03975 5.37309 6.66667 5.83333 6.66667ZM9.16667 6.66667C9.62692 6.66667 10 7.03975 10 7.5V11.6667C10 12.1269 9.62692 12.5 9.16667 12.5C8.70642 12.5 8.33333 12.1269 8.33333 11.6667V7.5C8.33333 7.03975 8.70642 6.66667 9.16667 6.66667ZM9.39933 1.66667H5.60063L5.32286 2.5H9.67717L9.39933 1.66667Z" fill="#3369F3"/>
</svg>
